@startuml

skinparam classAttributeIconSize 0

package "linked_list_data_mod" {
 abstract class linked_list_data_type {
 }
}

package "pure_abstract_field_mod" {
 abstract class pure_abstract_field_type {
 }

 pure_abstract_field_type -up-^ linked_list_data_type
}

package "field_parent_mod" {
 abstract class field_parent_type {
   -halo_dirty : integer[]<<allocatable>>

   +field_parent_proxy_initialiser(...) :
 }

 abstract class field_parent_proxy_type {
   +halo_dirty: integer[] <<pointer>>
 }

 field_parent_type -up-^ pure_abstract_field_type
 field_parent_proxy_type -left-> field_parent_type
}


package "field_real64_mod" {
 class field_real64_type {
   -data : real64[] <<allocatable>>

   +get_proxy() : field_proxy_type
 }

 class field_real64_proxy_type {
   +data: real64[] <<pointer>>
 }

 class field_real64_pointer_type {
   +field_ptr: field_real64_type <<pointer>>
 }

 field_real64_pointer_type -up-^ pure_abstract_field_type
 field_real64_type -up-^ field_parent_type
 field_real64_proxy_type -up-^ field_parent_proxy_type
 field_real64_proxy_type -left-> field_real64_type
 field_real64_type -left-o field_real64_pointer_type
}

package "field_int32_mod" {
 class field_int32_type {
   -data : integer[] <<allocatable>>

   +get_proxy() : field_proxy_type
 }

 class field_int32_proxy_type {
   +data: integer[] <<pointer>>
 }

 class field_int32_pointer_type {
   +field_int32_ptr: field_int32_type <<pointer>>
 }

 field_int32_pointer_type -up-^ pure_abstract_field_type
 field_int32_type -up-^ field_parent_type
 field_int32_proxy_type -up-^ field_parent_proxy_type
 field_int32_proxy_type -left-> field_int32_type
 field_int32_type -left-o field_int32_pointer_type
}

package "field_mod" {
 class field_type {
 }

 class field_proxy_type {
 }

 class field_pointer_type {
 }

 field_type --- field_real64_type
 field_proxy_type --- field_real64_proxy_type
 field_pointer_type --- field_real64_pointer_type
}

field_real64_type -[hidden]--> field_int32_type
field_real64_proxy_type -[hidden]--> field_int32_proxy_type
field_real64_pointer_type -[hidden]--> field_int32_pointer_type

@enduml
